<svg width="488" height="365" fill="none" xmlns="http://www.w3.org/2000/svg"><path d="M166.062 364.332c23.118 0 41.858-1.751 41.858-3.911 0-2.161-18.74-3.912-41.858-3.912-23.117 0-41.857 1.751-41.857 3.912 0 2.16 18.74 3.911 41.857 3.911zM381.091 364.332c23.117 0 41.858-1.751 41.858-3.911 0-2.161-18.741-3.912-41.858-3.912-23.118 0-41.858 1.751-41.858 3.912 0 2.16 18.74 3.911 41.858 3.911z" fill="#C8DBFB"/><path d="M469.528 84.9471a57.115 57.115 0 00-.39-2.1347" stroke="#C8DBFB" stroke-linecap="round" stroke-linejoin="round"/><path d="M468.109 78.6189c-7.462-25.443-31.277-22.9832-52.796-22.9399-23.165.0433-381.7661.791-381.7661.791-36.042.0759-32.544 52.132-4.3319 52.067 16.2232-.032 22.3963 30.449-5.6533 30.504-16.8297.032-17.3712 21.379-6.0539 25.659" stroke="#C8DBFB" stroke-linecap="round" stroke-linejoin="round" stroke-dasharray="3.99 3.99"/><path d="M19.5872 165.253c.6822.119 1.4079.184 2.166.173" stroke="#C8DBFB" stroke-linecap="round" stroke-linejoin="round"/><path d="M26.1716 164.44c.4766 2.828-1.4187 5.505-4.2453 5.992-2.8266.477-5.5016-1.419-5.989-4.247-.4765-2.828 1.4188-5.505 4.2454-5.993 2.8266-.476 5.5124 1.431 5.9889 4.248zM474.629 87.2876c-.509 2.8174-3.216 4.692-6.032 4.1719-2.816-.5093-4.69-3.2183-4.17-6.0357.509-2.8173 3.217-4.692 6.033-4.1718 2.815.5093 4.678 3.2074 4.169 6.0356zM79.0436 126.536c-.7472 4.215-1.8411 8.333-3.1731 12.396-2.87 8.767-6.8337 17.208-10.8408 25.541-2.0902 4.356-10.57 14.433-15.1186 16.351.5306-11.367.574-24.641-.7473-36.116-1.2671-11.053 2.7075-19.429-1.6245-29.68-.5523-1.311-1.1263-2.622-1.7003-3.933-2.1551-4.877-4.2886-9.775-4.9601-15.0301-.8664-6.6641 1.2021-14.2602 6.9637-17.7277 4.1478-2.4923 9.552-2.3622 13.9814-.4009 4.4295 1.9613 7.9817 5.548 10.6783 9.5682 7.5485 11.2261 8.9131 25.7245 6.5413 39.0315z" fill="#5193F4"/><path d="M58.9 89.7258c8.4799 11.9842 9.2163 25.9412 9.9527 40.6022.7365 14.662-2.7832 29.518-10.0285 42.283" stroke="#0B43A4" stroke-miterlimit="10" stroke-linecap="round" stroke-linejoin="round"/><path d="M58.5425 310.759c-5.9456-5.255-11.9562-10.587-16.3532-17.197-3.823-5.753-6.2922-12.288-9.6278-18.345-2.1552-3.912-4.711-7.693-5.9565-11.985-1.2454-4.291-.953-9.384 2.101-12.645 3.184-3.414 8.6532-3.934 12.9743-2.178 4.3211 1.755 7.6243 5.396 10.1368 9.319 3.3465 5.212 5.5883 11.139 6.5197 17.262.8447 5.548.6281 11.226 1.4945 16.774.8014 5.168 2.545 10.131 4.7327 14.867 1.9818 4.291 7.0178 11.952 8.2957 16.351-3.563 1.767-11.783-9.98-14.3172-12.223z" fill="#00AD9F"/><path d="M37.7598 256.254c5.6532 2.471 7.895 9.221 9.0755 15.279 1.3429 6.892 1.0396 14.358 4.202 20.632 5.9564 11.822 13.6999 25.269 19.4614 29.289" stroke="#00AD9F" stroke-miterlimit="10" stroke-linecap="round" stroke-linejoin="round"/><path d="M29.2908 294.592c-4.9277-1.951-11.5231-2.752-14.6854 1.506-2.6425 3.565-1.278 8.626.5523 12.667 1.5487 3.414 3.5089 6.892 6.7579 8.745 2.2201 1.268 4.8301 1.647 7.3752 1.951a176.1216 176.1216 0 0021.3783 1.235c8.2741-.022 18.3026 3.359 25.158 8.528-8.794-16.341-29.934-28.076-46.5363-34.632z" fill="#0056EC"/><path d="M20.6377 305.211c6.2814.271 12.6169.705 18.6383 2.492 6.1623 1.821 29.869 12.711 33.5729 17.338" stroke="#0B43A4" stroke-miterlimit="10" stroke-linecap="round" stroke-linejoin="round"/><path d="M83.094 261.043c-6.4221-10.055-17.4037-17.077-29.2191-18.67-8.729-1.17-17.707.455-26.3276-1.354-9.0539-1.897-17.2197-7.737-21.9415-15.702-4.7219-7.964-5.9565-17.912-3.3031-26.787 2.0252-6.74 6.6495-13.133 13.3424-15.289 3.6497-1.17 7.6352-1.008 11.3607-.119 3.4439.823 6.6387 2.264 9.5845 4.139 6.7362 4.269 12.1836 10.836 16.2774 17.814 3.7146 6.339 12.8768 16.211 19.1148 22.637 3.6605 3.749 6.3139 6.317 6.3139 6.317 4.267 5.332 2.2634 20.675 4.7976 27.014z" fill="#52D2BC"/><path d="M13.6848 202.735c20.9776 9.47 43.8505 21.889 58.7308 39.465" stroke="#00AD9F" stroke-miterlimit="10" stroke-linecap="round" stroke-linejoin="round"/><path opacity=".2" d="M74.4302 239.837s-31.2552-25.356-37.8506-52.565c6.7362 4.269 12.1837 10.836 16.2774 17.814 3.7147 6.339 12.8768 16.211 19.1148 22.637.7365 3.402 1.5487 7.401 2.4584 12.114zM75.8706 138.932c-2.87 8.767-6.8337 17.208-10.8408 25.541-2.0902 4.356-10.5701 14.433-15.1186 16.351.5306-11.367.574-24.641-.7473-36.116-1.2671-11.053 2.7075-19.429-1.6245-29.68-.5523-1.311-1.1263-2.622-1.7003-3.934.4007.131.7906.271 1.1696.434 7.1262 3.056 10.4185 10.598 11.0249 17.923.509 6.046-.5848 12.104-1.397 18.118-.3791 2.774-.6823 5.613-.0867 8.332.0109.033.0217.055.0217.087.7473 3.24 5.4799 3.056 6.0864-.227l1.8953-10.067c.5631-3.013 1.1804-6.166 3.6496-8.268.9747-.834 2.231-1.354 3.5089-1.311 2.0361.076 3.314 1.268 4.1588 2.817z" fill="#5275A0"/><path d="M74.4302 233.487c-4.9385-25.8-7.5377-29.777-5.3609-36.246 2.7725-8.246 1.213-16.525 3.823-24.825 2.61-8.29 4.3861-17.208 2.2851-25.649-.6606-2.666-2.0143-5.57-5.22-5.689-1.2888-.044-2.5342.477-3.5089 1.311-2.4692 2.102-3.0866 5.255-3.6497 8.268l-1.8844 10.067c-.6173 3.272-5.3392 3.467-6.0864.216-.0109-.032-.0109-.054-.0217-.086-.6065-2.72-.2924-5.559.0758-8.333.8122-6.025 1.9061-12.072 1.4079-18.129-.6065-7.325-3.8988-14.867-11.0357-17.912-2.5234-1.084-5.3825-1.322-8.0467-.639-7.4401 1.907-9.3679 9.189-8.274 15.398.7689 4.377 2.8157 8.398 4.6677 12.429 4.5269 9.85 1.2021 18.887 1.8302 29.712 1.7328 29.897 38.9987 60.107 38.9987 60.107z" fill="#7EE8D4"/><path d="M41.2256 123.664c3.6713 18.357 7.386 36.843 14.5121 54.159 2.0902 5.071 3.1082 11.757 15.2052 25.562" stroke="#00AD9F" stroke-miterlimit="10" stroke-linecap="round" stroke-linejoin="round"/><path d="M184.452 128.367c-3.802-4.345-7.311-8.766-11.004-13.025-2.393-2.763-4.862-5.461-7.548-8.018-1.332-1.279-2.708-2.514-4.159-3.717-8.577-7.0869-18.151-12.9708-28.385-17.3486-6.173-2.644-12.693-4.822-17.935-9.0372-5.241-4.2044-9.01-11.1178-7.266-17.6086 1.267-4.6811 5.241-8.322 9.801-9.9908 4.548-1.6579 9.595-1.5279 14.328-.5093 13.212 2.8499 24.248 12.3531 31.753 23.5901.13.195.271.4009.401.6068 5.501 8.3979 9.346 17.7385 12.693 27.2526 1.072 3.056 2.09 6.133 3.097 9.2 1.516 4.583 6.173 14.065 4.224 18.605z" fill="#5193F4"/><path d="M124.01 60.1544c14.414 2.7524 24.616 12.2989 35.305 22.3548 10.689 10.0558 18.444 23.1998 22.072 37.4278" stroke="#0B43A4" stroke-miterlimit="10" stroke-linecap="round" stroke-linejoin="round"/><path opacity=".2" d="M173.448 115.342c-.119 1.496-.075 2.991.206 4.508-3.606-.823-6.108-6.426-7.754-12.526-1.614-5.928-2.415-12.3426-2.664-15.3009-.488-6.2415-.087-12.5697 1.202-18.7138 5.501 8.3979 9.346 17.7386 12.693 27.2527-1.148 3.413-2.134 6.87-2.946 10.359-.347 1.485-.618 2.948-.737 4.421z" fill="#5275A0"/><path d="M198.455 63.2752c-1.224 5.4072-4.484 10.0775-7.365 14.8237-1.516 2.4923-2.934 5.0604-4.256 7.6611-4.234 8.322-7.462 17.153-9.595 26.245-.704 2.98-1.094 5.905-.531 8.929-7.104-1.626-9.942-21.8349-10.418-27.8381-.856-10.8143.985-21.8996 5.436-31.8037 1.939-4.3452 4.452-8.6146 8.318-11.3995 3.855-2.7849 9.314-3.7601 13.397-1.3328 2.458 1.4628 4.039 3.8901 4.808 6.6533.758 2.579.791 5.4505.206 8.062z" fill="#52D2BC"/><path d="M174.001 114.974c-4.419-11.107-1.733-34.6104 5.35-49.3799 2.133-4.4536 5.176-8.6255 9.433-11.1069" stroke="#00AD9F" stroke-miterlimit="10" stroke-linecap="round" stroke-linejoin="round"/><path opacity=".2" d="M198.455 63.2759c-1.224 5.4072-4.484 10.0775-7.365 14.8237-1.516 2.4923-2.935 5.0604-4.256 7.661-1.939-3.2724-3.271-6.8808-3.639-10.6518-.595-6.2957 1.809-13.0357 6.921-16.7417 2.393-1.7229 5.198-2.709 8.133-3.1532.758 2.5789.79 5.4505.206 8.062z" fill="#5275A0"/><path d="M239.446 110.314c-.336 2.07-.953 4.064-1.841 5.982-3.152 6.827-9.769 12.678-19.678 17.446 0 0-.552-10.793-.672-13.686-.487-12.375-13.905-19.212-22.396-28.2388-4.321-4.6053-7.602-10.4134-8.209-16.7091-.596-6.2957 1.809-13.0358 6.92-16.7417 4.289-3.0991 9.899-3.7709 15.184-3.37 8.512.6827 17.1 4.2477 22.396 10.9011.228.2492.423.5201.618.7802 3.238 4.4319 4.906 9.8282 6.129 15.2029 2.123 9.3082 3.076 18.9954 1.549 28.4334z" fill="#00AD9F"/><path d="M197.231 64.998c9.292 4.8112 18.595 10.6194 23.999 19.5699 7.548 12.4939 5.902 28.7481.087 42.1301" stroke="#00AD9F" stroke-miterlimit="10" stroke-linecap="round" stroke-linejoin="round"/><path d="M394.856 190.122c5.924-9.753 2.891-22.301 4.96-33.516 1.581-8.626 6.379-16.623 13.245-22.084 4.31-3.424 10.364-5.873 15.227-3.305 1.05.553 2.306 1.344 3.324.715.607-.368.845-1.127.997-1.82 1.234-6.058-1.679-12.678.704-18.389 1.278-3.077 3.931-5.375 6.736-7.163 5.415-3.456 11.75-5.4392 18.162-5.6993 1.7-.065 3.476 0 5.003.7586 2.751 1.3757 4.007 4.8107 3.639 7.8667-.368 3.056-2.058 5.797-3.92 8.246-6.217 8.138-15.325 15.16-16.527 25.324-.151 1.279-.151 2.644.433 3.793.574 1.116 1.636 1.907 2.231 3.001 1.917 3.522-1.787 7.521-5.393 9.244-3.303 1.582-6.877 2.568-10.527 2.914-2.512.239-5.339.293-7.05 2.146-3.151 3.424.466 8.896-.195 13.502-.411 2.871-2.491 5.19-4.592 7.206-3.888 3.738-8.133 7.086-12.671 10.001-3.682 2.363-7.57 4.443-10.83 7.347-3.26 2.904-5.891 6.838-6.108 11.205" fill="#52D2BC"/><path d="M402.653 180.629c.964-4.724 3.162-9.102 5.339-13.404 3.401-6.729 6.866-13.556 12-19.071 3.899-4.194 8.653-7.51 12.617-11.638 2.826-2.948 5.231-6.285 7.126-9.904 1.029-1.962 1.917-4.02 3.292-5.743 1.646-2.048 3.888-3.511 5.848-5.267 2.643-2.362 4.765-5.298 6.195-8.549" stroke="#00AD9F" stroke-miterlimit="10" stroke-linecap="round" stroke-linejoin="round"/><path d="M479.881 196.883c-1.332 5.137-3.314 10.219-6.714 14.293-2.35 2.807-5.274 5.028-8.469 6.838-1.646.942-3.379 1.766-5.123 2.503-6.779 2.85-14.068 4.464-21.41 4.746-10.7.401-21.704-1.961-31.97 1.094-4.712 1.398-9.054 3.945-12.617 7.315-2.231 2.091-4.148 4.508-5.664 7.162l1.397-8.885c2.588-9.558 5.23-19.288 10.516-27.665 3.411-5.428 7.84-10.153 12.551-14.498 7.527-6.957 15.877-13.079 25.093-17.555 7.451-3.619 15.725-6.165 23.956-5.157 8.22.996 16.299 6.198 18.866 14.076 1.646 5.06.931 10.586-.412 15.733z" fill="#5193F4"/><path d="M396.307 225.187c7.862-11.638 19.634-20.588 32.955-25.031 8.296-2.774 17.079-3.825 25.483-6.252 8.404-2.428 16.797-6.545 21.725-13.784" stroke="#0B43A4" stroke-miterlimit="10" stroke-linecap="round" stroke-linejoin="round"/><path d="M401.484 310.542c.465-11.952 6.638-22.983 14.144-32.302 6.248-7.769 13.797-14.878 23.121-18.421 2.925-1.105 6.13-1.853 9.163-1.105 3.032.747 5.783 3.337 5.837 6.469.043 2.633-1.722 4.941-3.585 6.805-6.129 6.144-14.046 10.077-21.476 14.563-12.757 7.716-24.887 18.01-29.944 32.043" fill="#52D2BC"/><path d="M406.206 300.086c7.797-17.403 27.984-32.964 41.294-34.903" stroke="#00AD9F" stroke-miterlimit="10" stroke-linecap="round" stroke-linejoin="round"/><path d="M396.61 320.046c-.108-2.005 6.422-7.239 7.895-8.572 8.155-7.401 17.837-12.84 28.071-16.048 4.138-1.3 8.545-2.243 12.682-1.246 4.148.997 7.95 4.4 8.35 8.864.39 4.334-2.512 8.582-6.227 10.673-3.715 2.103-8.047 2.417-12.184 2.178-6.389-.368-12.671-1.961-19.082-1.918-6.422.055-15.433.705-19.505 6.069z" fill="#00AD9F"/><path d="M403.26 313.967c13.115-7.109 32.944-11.736 47.348-9.991" stroke="#00AD9F" stroke-miterlimit="10" stroke-linecap="round" stroke-linejoin="round"/><path opacity=".2" d="M239.446 110.314c-.336 2.07-.953 4.064-1.841 5.982-4.603-9.763-8.653-22.5066-9.628-38.1538-.26-4.2369.921-8.593 3.173-12.2447.228.2492.423.5201.618.7802 3.238 4.4319 4.906 9.8282 6.129 15.2029 2.123 9.3082 3.076 18.9954 1.549 28.4334z" fill="#5275A0"/><path d="M284.813 109.762c9.79-3.479 19.97-6.253 28.872-11.6274 2.697-1.6254 5.285-3.5108 7.202-6.0031 1.906-2.4923 3.087-5.6781 2.664-8.7989-.433-3.1641-2.458-6.1982-1.776-9.3298.455-2.0589 1.993-3.6626 3.173-5.418 2.805-4.1502 3.639-9.5791 2.221-14.3903-1.538-5.1579-5.405-9.2973-7.603-14.206-1.798-4.0202-2.437-8.5388-1.83-12.8949-8.22.1084-15.715 4.6053-23.794 6.1007-6.184 1.1486-12.606.5201-18.736 1.9288-11.165 2.5682-20.306 12.4073-22.038 23.7418-5.177-.8886-10.755.9752-14.361 4.8112-3.823 4.0743-5.978 9.8716-5.632 15.4521 2.524 40.5588 25.732 61.7108 25.732 61.7108s22.169-29.744 25.906-31.077z" fill="#7EE8D4"/><path d="M262.904 109.48c-1.018-10.0017 2.48-19.895 6.487-29.1164 3.909-8.9831 8.415-17.7928 14.458-25.508 6.043-7.7153 13.721-14.3253 22.786-18.0529M271.622 42.9468c-1.029 8.918-.304 19.6674 2.014 28.3362M275.304 68.0863c10.18-6.5341 25.84-10.5001 37.916-9.8066M250.406 69.7551c12.26 5.1688 12.758 23.2 13.093 28.3254M266.835 86.616c9.379-6.7292 22.927-8.7555 32.901-6.2416M292.426 38.309c-2.816 3.4783-3.52 7.6177-3.238 10.4892M291.852 46.2518c4.321-2.2106 10.105-2.7198 16.289-1.1703" stroke="#00AD9F" stroke-miterlimit="10" stroke-linecap="round" stroke-linejoin="round"/><path d="M50.7125 65.8757c1.148-.065 9.0105-5.8839 12.0321-7.8452.8555-.5527 1.7111-1.127 2.3067-1.9505.5957-.8236.8773-1.9505.4441-2.8716-.5415-1.1377-1.4296-2.2755-3.6714-2.2755-3.9096.0108-5.2742 1.3003-7.1802 3.2616-6.2922 6.5125-3.9313 11.6812-3.9313 11.6812zM85.9422 89.3574c3.4223 1.5387 7.072 3.0666 10.7975 2.5898 1.4404-.1842 3.0215-.8452 3.4983-2.2105.411-1.1703-.152-2.5248-1.0832-3.3484-.9314-.8235-2.1552-1.2244-3.3682-1.517-4.5485-1.1161-10.949-.4985-15.4543.7802-.0108 0 3.5631 2.7849 5.6099 3.7059zM108.469 38.7966c-1.527-.9644-3.217-2.2539-3.206-4.0635 0-1.8096 1.884-3.1858 3.693-3.1966 1.809-.0109 3.487.9752 4.852 2.178 5.751 5.0604 5.036 10.8252 5.036 10.8252s-8.675-4.6703-10.375-5.7431zM113.006 23.3769c-1.343-.5743-2.718-1.2678-3.509-2.5031-.379-.596-.595-1.3545-.368-2.0264.39-1.1161 1.094-2.1238 3.921-1.6145 8.934 1.6254 10.884 7.7477 10.884 7.7477s-8.556-.5851-10.928-1.6037zM139.182 36.9219c3.585-.3142 7.289-2.0913 9.542-4.8979.855-1.0619 1.635-2.2213 1.916-3.5542.282-1.3328-.021-2.8499-1.05-3.7384-1.256-1.0836-3.249-.9102-4.624 0-1.387.9102-2.275 2.4056-2.99 3.8901-.953 1.9939-2.794 8.3004-2.794 8.3004z" fill="#4A49CA"/><path d="M75.1882 167.669c-8.6748-7.65-17.3604-15.311-26.0352-22.961-4.6244-4.075-9.3462-8.279-12.2703-13.708-6.2922-11.67-2.6642-26.83 5.8373-37.0048 8.5015-10.175 20.956-16.1782 33.4754-20.5451 12.5086-4.3669 25.5366-7.4335 37.4606-13.2199 7.484-3.6301 15-9.0264 17.057-17.0885 1.235-4.8437.195-10.2292-2.75-14.2602-2.946-4.0418-7.755-6.6641-12.747-6.9567M145.247 28.5999c-2.372 7.2818-11.61 11.7137-15.822 18.0311" stroke="#0B43A4" stroke-miterlimit="10" stroke-linecap="round" stroke-linejoin="round"/><path d="M112.086 36.9761c1.819 1.918 3.996 3.5109 5.588 5.6239 3.357 4.4753 3.628 11.7462-1.332 16.254M65.3545 77.7629c7.6568 5.9057 17.7178 9.8391 27.3781 10.2076M47.8316 88.5122c-3.5305-10.4026.3141-22.864 9.0864-29.4631" stroke="#0B43A4" stroke-miterlimit="10" stroke-linecap="round" stroke-linejoin="round"/><path d="M327.688 44.5614c-.411-1.2895-.39-2.8715.553-3.8359.758-.7585 2.014-1.1053 3-.6718 7.613 3.3483 6.79 15.2354 6.79 15.2354s-7.213-1.0403-10.343-10.7277zM327.504 66.8294c-4.927 8.9072 12.574 8.2246 18.888 2.9799 0 0-14.642-10.6518-18.888-2.9799zM349.641 45.2441c-1.192-1.6255-1.614-4.0527-.314-5.6023.963-1.1486 2.642-1.5062 4.115-1.2244 1.473.2817 3.682 1.647 4.624 2.8173 5.762 7.1735 3.054 14.1844 3.054 14.1844s-9.541-7.5094-11.479-10.175zM419.147 67.2954c-.422-1.387-.325-3.0774.748-4.0527.682-.6176 1.646-.8344 2.555-.7693.91.065 1.787.4009 2.621.7802 1.787.8127 3.173 2.243 4.029 4.0093 2.166 4.4644.693 9.98.693 9.98s-9.584-6.4908-10.646-9.9475zM397.282 83.6361c-3.098-2.7198-7.83-3.5217-11.61-1.8638-.964.4226-1.874 1.0186-2.48 1.8638-1.386 1.918-.899 4.7137.541 6.5883 1.43 1.8746 3.607 3.0124 5.762 3.9877 3.899 1.7662 9.942 2.1238 14.09 3.1858-.011-.0109-.022-8.2463-6.303-13.7618z" fill="#4A49CA"/><path d="M333.147 46.4794c2.577 8.4304 9.866 14.802 17.977 18.237 8.112 3.4459 17.047 4.3561 25.851 4.9196 8.794.5743 17.697.856 26.198 3.1641 8.285 2.2539 16.548 6.935 20.1 14.7586 4.332 9.5249.499 20.9023-5.588 29.4203-6.075 8.506-14.263 15.365-20.143 24.012-2.697 3.966-4.961 8.626-4.408 13.394.725 6.36 6.086 11.041 11.057 15.072M353.42 43.3802c5.827 6.4475 10.484 16.5358 11.621 25.1613" stroke="#0B43A4" stroke-miterlimit="10" stroke-linecap="round" stroke-linejoin="round"/><path d="M333.818 68.3031c3.336.8886 6.715 1.7772 10.159 1.788 3.444.0108 7.44-1.9071 9.92-4.3019M424.855 67.8156c3.119 3.0124 5.025 7.2709 5.187 11.6053.163 4.3453-2.242 9.6008-5.133 12.8407M392.181 87.5154c6.238 5.7431 11.664 10.3917 18.595 15.2676 3.162 2.233 9.443 5.082 12.238 4.346" stroke="#0B43A4" stroke-miterlimit="10" stroke-linecap="round" stroke-linejoin="round"/><path opacity=".2" d="M464.697 218.014c-1.646.942-3.379 1.766-5.122 2.503-6.78 2.85-14.069 4.464-21.411 4.746-10.7.401-21.703-1.961-31.97 1.094-4.711 1.398-9.054 3.945-12.617 7.315-.358.173-.715.368-1.072.574-.856-7.249 17.208-16.698 22.699-19.158 9.91-4.443 20.956-6.415 31.786-5.548 4.744.379 9.606 1.311 13.516 4.009 1.679 1.16 3.151 2.709 4.191 4.465z" fill="#5275A0"/><path d="M446.98 213.874c4.744.38 9.606 1.311 13.516 4.01 3.91 2.698 6.671 7.52 5.761 12.19-1.061 5.44-6.682 8.983-12.183 9.644-5.502.672-10.993-.845-16.418-1.961-12.011-2.471-24.4-3.045-36.584-1.669-3.043.336-5.924.943-8.577 2.503-.856-7.249 17.219-16.698 22.71-19.158 9.91-4.453 20.956-6.426 31.775-5.559z" fill="#52D2BC"/><path d="M397.195 234.018c8.967-7.888 32.002-13.241 48.291-11.518 4.905.52 9.855 1.983 13.624 5.169" stroke="#00AD9F" stroke-miterlimit="10" stroke-linecap="round" stroke-linejoin="round"/><path d="M380.441 145.38l87.603-.185c10.278-.021 18.628 8.301 18.649 18.584.022 10.284-8.295 18.638-18.573 18.66l-59.922.119M115.389 209.735l-61.265.13c-5.8048.011-10.4942 4.724-10.4834 10.533.0109 5.808 4.7219 10.5 10.5268 10.489l17.8585-.033" stroke="#0B43A4" stroke-miterlimit="10" stroke-linecap="round" stroke-linejoin="round" stroke-dasharray="4 4"/><path d="M17.6054 257.197c-20.9885.043-21.4216 31.37 5.2742 31.305 26.7066-.054 377.0224-.78 393.5384-.813 16.516-.032 18.259-25.822-2.155-25.779-40.645.087-41.988-19.309-19.429-19.353" stroke="#C8DBFB" stroke-miterlimit="10" stroke-linecap="round" stroke-linejoin="round" stroke-dasharray="4 4"/><path d="M22.5112 256.33c.4766 2.828-1.4187 5.504-4.2453 5.992-2.8266.477-5.5016-1.419-5.989-4.248-.4765-2.828 1.4188-5.504 4.2454-5.992 2.8266-.477 5.5124 1.42 5.9889 4.248z" fill="#5193F4"/><path d="M404.906 242.698c.476 2.828-1.419 5.505-4.246 5.992-2.826.477-5.501-1.419-5.989-4.247-.476-2.829 1.419-5.505 4.246-5.993 2.826-.476 5.501 1.431 5.989 4.248z" fill="#0B43A4"/><path opacity=".2" d="M410.548 333.266l-325.8618.671c-4.3428.011-7.8842-3.51-7.8842-7.856l-.4441-215.994c-.0108-4.346 3.5089-7.889 7.8517-7.889l325.8624-.672c4.343-.011 7.884 3.511 7.884 7.856l.444 215.995c.011 4.345-3.498 7.878-7.852 7.889z" fill="#5275A0"/><path d="M404.169 329.136l-325.8617.672c-4.3428.011-7.8842-3.511-7.8842-7.856l-.4441-215.995c-.0108-4.345 3.5089-7.8882 7.8517-7.8882l325.8623-.6718c4.343-.0108 7.884 3.511 7.884 7.856l.444 215.995c.011 4.345-3.509 7.877-7.852 7.888z" fill="#fff"/><path d="M403.163 97.387l-324.4653.6718c-4.7326.0109-8.5556 3.8572-8.5556 8.5932l.0108 7.455 341.6091-.704-.011-7.456c-.011-4.735-3.855-8.5709-8.588-8.56z" fill="#0056EC"/><path d="M79.0869 329.809l49.0271-.098-.444-215.723-57.5936.119.4224 207.163c.0108 4.725 3.8554 8.55 8.5881 8.539z" fill="#C8DBFB"/><path d="M403.791 99.5542c3.141 0 5.696 2.5568 5.707 5.6998l.444 215.994c0 1.528-.585 2.959-1.668 4.042-1.072 1.084-2.501 1.68-4.028 1.68l-325.8734.672c-3.1407 0-5.6965-2.558-5.7074-5.7l-.444-215.995c0-1.527.5848-2.958 1.6678-4.041 1.0722-1.084 2.5017-1.68 4.0287-1.68l325.8513-.6718h.022zm0-2.1672h-.022l-325.8621.6718c-4.3428.0108-7.8625 3.5432-7.8517 7.8882l.444 215.995c.0109 4.345 3.5306 7.856 7.8734 7.856h.0217l325.8627-.672c4.342-.011 7.862-3.543 7.851-7.888l-.444-215.995c-.011-4.345-3.53-7.856-7.873-7.856z" fill="#0056EC"/><path d="M119.84 313.317l-37.7855.075c-1.6678 0-3.0215-1.343-3.0215-3.012v-.379c0-1.669 1.3429-3.024 3.0107-3.024l37.7853-.075c1.668 0 3.022 1.343 3.022 3.012v.379c.011 1.669-1.343 3.024-3.011 3.024zM115.302 166.965l-32.1647.065c-3.0541.011-5.5341-2.47-5.5449-5.526l-.065-32.183c-.0109-3.056 2.4692-5.537 5.5232-5.548l32.1654-.065c3.054-.011 5.534 2.47 5.545 5.526l.064 32.183c0 3.067-2.469 5.548-5.523 5.548z" fill="#fff"/><path d="M253.005 263.373l-112.068.228c-2.177 0-3.942-1.756-3.953-3.934v-.487c0-2.178 1.754-3.945 3.931-3.955l112.068-.228c2.177 0 3.943 1.756 3.953 3.934v.487c0 2.189-1.754 3.955-3.931 3.955zM246.529 135.616l-88.557.185c-2.177 0-3.942-1.756-3.953-3.934v-.487c0-2.178 1.755-3.945 3.932-3.956l88.556-.184c2.177 0 3.942 1.756 3.953 3.934v.487c0 2.189-1.755 3.955-3.931 3.955zM386.527 225.241l-118.078.25c-2.177 0-3.943-1.756-3.953-3.934v-.488c0-2.178 1.754-3.944 3.931-3.955l118.079-.238c2.177 0 3.942 1.755 3.953 3.933v.488c0 2.167-1.755 3.933-3.932 3.944zM253.038 280.7l-112.069.228c-2.177 0-3.942-1.756-3.953-3.934v-.487c0-2.178 1.755-3.945 3.932-3.956l112.068-.227c2.177 0 3.942 1.755 3.953 3.933v.488c.011 2.178-1.755 3.944-3.931 3.955zM253.07 298.016l-112.068.228c-2.177 0-3.942-1.756-3.953-3.934v-.488c0-2.178 1.754-3.944 3.931-3.955l112.068-.227c2.177 0 3.942 1.755 3.953 3.933v.488c.011 2.178-1.754 3.955-3.931 3.955zM384.123 309.307l-112.945.239c-3.596.01-6.52-2.904-6.52-6.502l-.097-48.535c-.011-3.597 2.902-6.523 6.498-6.523l112.945-.238c3.596-.011 6.52 2.904 6.52 6.501l.097 48.535c.011 3.597-2.902 6.523-6.498 6.523zM88.8772 105.904c0 1.528-1.2346 2.763-2.7508 2.763s-2.7617-1.235-2.7617-2.752c0-1.528 1.2347-2.763 2.7509-2.763 1.5161 0 2.7616 1.235 2.7616 2.752zM97.8119 108.657c1.5252 0 2.7621-1.238 2.7621-2.764 0-1.526-1.2369-2.763-2.7621-2.763-1.5252 0-2.7616 1.237-2.7616 2.763 0 1.526 1.2364 2.764 2.7616 2.764zM112.259 105.861c0 1.528-1.235 2.763-2.751 2.763-1.516 0-2.761-1.235-2.761-2.752 0-1.528 1.234-2.764 2.75-2.764 1.517-.01 2.751 1.225 2.762 2.753zM149.685 132.457c.44-4.388-2.76-8.302-7.146-8.742-4.386-.44-8.298 2.761-8.737 7.15-.44 4.388 2.76 8.303 7.146 8.742 4.386.44 8.298-2.761 8.737-7.15z" fill="#C8DBFB"/><path d="M117.544 173.716l-35.3595.076c-.8231 0-1.4837-.661-1.4946-1.485v-.184c0-.823.6607-1.484 1.4837-1.495l35.3594-.076c.824 0 1.484.661 1.495 1.484v.185c0 .823-.661 1.495-1.484 1.495zM117.555 180.478l-35.3598.075c-.8231 0-1.4837-.661-1.4945-1.484v-.184c0-.824.6606-1.485 1.4837-1.496l35.3596-.076c.823 0 1.484.661 1.495 1.485v.184c0 .824-.661 1.485-1.484 1.496z" fill="#fff"/><path d="M158.037 194.76l-9.996.097.076 41.914-8.631.021c-3.044.011-5.513-2.459-5.524-5.504l-.162-77.51c-.011-3.078 2.48-5.581 5.556-5.581l18.573-.043.108 46.606z" fill="#C8DBFB"/><path d="M222.898 148.024v1.083c2.989 0 5.426 2.428 5.426 5.418l.151 75.571c0 1.452-.563 2.817-1.581 3.847-1.018 1.029-2.383 1.592-3.834 1.603l-82.6.174c-2.989 0-5.426-2.428-5.426-5.418l-.151-75.571c0-1.452.563-2.817 1.581-3.847 1.018-1.029 2.383-1.592 3.834-1.603l82.589-.174.011-1.083zm0 0h-.011l-82.589.173c-3.596.011-6.509 2.926-6.498 6.523l.151 75.571c.011 3.597 2.925 6.501 6.509 6.501h.011l82.589-.173c3.596-.011 6.509-2.926 6.498-6.523l-.151-75.571c0-3.597-2.914-6.512-6.509-6.501zM360.806 210.212L250.644 185.3c-3.509-.791-5.707-4.281-4.917-7.791l12.39-54.863c.79-3.511 4.278-5.711 7.787-4.92l110.162 24.912c3.509.791 5.707 4.28 4.917 7.791l-12.39 54.863c-.791 3.511-4.278 5.722-7.787 4.92z" fill="#C8DBFB"/><path d="M147.608 359.424l-15.411.032-3.78-19.645 22.884-.044-3.693 19.657z" fill="#0056EC"/><path d="M132.685 339.8c0 1.603-.304 4.291.769 4.334 1.072.043.628-2.557 1.841-2.481.779.043-.358 8.538 2.577 8.744 2.015.141 1.646-4.161 1.852-6.859.141-1.82 2.469-1.463 2.491-.26.022 1.355-.065 2.254 0 3.793.108 2.568 4.05 1.885 3.91-1.539-.141-3.424-.011-5.743-.011-5.743l-13.429.011z" fill="#C8DBFB"/><path d="M129.002 351.665c-.314 0-.617-.032-.909-.097-1.138-.249-1.928-.845-2.372-1.777-1.571-3.338 2.567-9.579 2.729-9.861l.217 1.127c-.033.065-3.639 5.429-2.221 8.43.336.716.932 1.16 1.831 1.355.249.054.509.076.769.076 5.555-.011 15.042-10.359 15.151-10.479.39-.466 1.115-.021.855.369-.444.498-10.082 10.847-16.05 10.857z" fill="#0C2340"/><path opacity=".2" d="M290.975 82.9643c-21.909-.8344-52.071 15.3763-41.371 55.0147-.227 3.348 1.777 5.743 3.91 5.093 2.134-.65.249-7.011.249-7.011 3.65-29.474 10.473-34.567 22.05-34.459l27.172-.054c6.715.986 18.92 5.689 20.75 29.279l6.769 1.246c.531-17.045-3.585-47.7326-39.529-49.1087z" fill="#5275A0"/><path d="M290.975 79.5076c-21.909-.8344-52.071 15.3763-41.371 55.0144l4.159-1.918c3.65-29.474 10.473-34.5668 22.05-34.4584l27.172-.0542c6.715.9861 19.245 6.9566 21.075 30.5466l6.433-.011c.542-17.056-3.574-47.7432-39.518-49.1194z" fill="#EF832B"/><path d="M286.491 80.1577l-3.249 7.1518s.39 4.031 4.343 3.9443c3.953-.0867 4.484-1.9071 4.484-1.9071l.519-8.2137-6.097-.9753z" fill="#FFB9A3"/><path d="M303.223 74.1871c-3.703 6.5558-5.35 8.6038-10.201 9.5899-6.282 1.2786-13.321-2.9583-10.051-13.4042 2.665-8.5171 6.715-7.206 10.668-6.8809 3.953.3143 13.592 3.6084 9.584 10.6952z" fill="#FFB9A3"/><path d="M288.473 69.0074c-.985-.5093-2.253-.0758-3.021.726-.791.8344-1.17 2.0697-.834 3.1641-1.517.0217-2.849 1.5063-2.708 3.0233-1.04-2.4164-.476-4.9412-.682-7.4227-.206-2.4814.065-5.1688 1.668-7.0651.66-.7802 1.505-1.3761 2.404-1.8529 3.411-1.8205 7.711-1.8747 11.176-.1626.715.3576 2.513 1.4846 5.025.8778 4.787-1.1595 7.581 2.0805 4.711 5.1146.921.3359 1.939.7476 2.351 1.6362.108.2275.162.5093.021.7152-.097.1408-.27.2167-.444.2709-.801.2709-1.678.3359-2.523.195.325.2709 2.101.3793 2.632 1.4195 1.429 2.7524-4.224 1.3654-5.091 1.0836.986.1843 3.564 2.2431 2.74 3.6626-.162.2818-3.649 2.3081-7.31-1.9505-.855-.986-1.917-1.9071-3.173-2.243-.985-.2601-2.025.0975-2.989.4659-.704.2601-2.491 1.3545-3 .7044-.531-.6935.195-1.788-.953-2.3623z" fill="#0C2340"/><path d="M324.764 128.627c-.974 3.349-1.949 3.674-.78 4.205 1.181.531 2.134-1.344 2.134-1.344l5.437 1.084s-1.224-3.533-2.08-3.956c-.855-.422-4.711.011-4.711.011zM253.763 132.604c.715 1.766.91 1.777 1.895 3.901 1.896 4.053-2.534 10.457-5.285 3.468-.758-1.918-.769-5.44-.769-5.44l4.159-1.929z" fill="#FFB9A3"/><path d="M296.217 59.9918c3.714.2058 8.285-2.4165 11.198.9427.271.3142.812-.0975.574-.4443-2.783-3.9985-7.949-1.0186-11.761-1.1269-.412 0-.401.6068-.011.6285zM297.711 57.9438c-2.534.4443-4.981-.7585-7.527-.3576-2.068.3251-3.909 1.387-5.469 2.7415-.4.3468.119 1.0295.574.7369 2.188-1.4412 4.289-2.6873 7.018-2.4815 1.982.1409 3.661.7369 5.632.1409.498-.1517.281-.8669-.228-.7802zM283.264 61.4114c-1.787 1.1161-2.816 2.6006-3.032 4.7353-.152 1.5387-.195 5.0604 1.353 5.9273.369.2059.758-.2817.455-.596-.996-1.0077-1.083-3.7275-1.007-5.0062.108-1.9613.931-3.4567 2.491-4.627.249-.1842.022-.6068-.26-.4334zM310.74 67.512c-.921-1.5929-3.271-3.0016-5.08-1.9938-.281.1625-.151.596.163.596.79.0108 1.516-.0867 2.285.1517.877.2709 1.614.7802 2.133 1.5278.217.3035.683.0434.499-.2817z" fill="#0C2340"/><path d="M190.224 232.816c11.49 4.226 21.465 17.402 19.169 26.992-2.588 10.825-10.05 15.496-10.05 15.496l-2.35-4.346s5.967-9.329 5.447-13.74c-.834-7.054-9.736-11.778-9.736-11.778l-2.48-12.624z" fill="#0B43A4"/><path d="M161.947 354.959s-7.05 2.85-8.816 4.465l13.971-.033-.011-4.443-5.144.011zM192.823 354.688s2.004 2.319 2.372 4.649l-9.53.022c.162-1.604.844-3.153 1.776-4.66l5.382-.011z" fill="#0C2340"/><path d="M193.408 354.894l-6.509.011c.13-7.672-1.451-33.819-2.978-53.367-.899-11.465-1.787-20.675-2.307-22.539l3.487-.77 13.159-2.925c2.252 10.294-2.946 57.561-4.852 79.59z" fill="#047F76"/><path d="M169.485 278.587c-5.08 7.997-6.39 65.818-8.513 76.535l6.173.347s7.094-36.453 22.191-77.435l-19.851.553z" fill="#009790"/><path opacity=".2" d="M191.935 278.034c-2.978 8.095-5.653 16.016-8.014 23.504-.899-11.465-1.787-20.675-2.307-22.539l3.487-.77 6.834-.195z" fill="#5275A0"/><path d="M169.485 278.587c-5.08 7.997-6.39 65.818-8.513 76.535l6.173.347s7.094-36.453 22.191-77.435l-19.851.553z" fill="#009790"/><path d="M173.362 214.037s-3.953 15.062 5.924 15.051l-.585 3.847 7.494.823-1.624-5.363s1.483-9.471 1.581-11.183c.184-3.197-8.762-8.821-12.79-3.175z" fill="#FFB9A3"/><path d="M148.95 197.152l-2.913.006.024 12.299 2.913-.006-.024-12.299z" fill="#0C2340"/><path d="M155.839 197.133l-16.7.032c-1.17 0-2.123-.943-2.123-2.113v-.433c0-1.171.943-2.124 2.112-2.124l16.7-.033c1.17 0 2.123.943 2.123 2.113v.434c.01 1.17-.943 2.124-2.112 2.124z" fill="#0056EC"/><path d="M145.258 212.661c-.076-2.785-2.383-2.059-1.115-6.61.779-2.818 6.595.455 5.869 2.405-.725 1.951-1.559 5.039-1.559 5.039l-3.195-.834z" fill="#FFB9A3"/><path d="M179.351 232.057c-14.762.975-15.736 5.96-22.343 5.18-9.779-1.149-8.068-19.321-6.855-25.833l-5.837.011s-10.527 41.382 22.721 33.732c-1.278 7.249 6.996 19.093-1.029 33.462 12.617 3.435 24.4 4.269 34.483-.065-1.766-2.384 3.617-26.429-6.921-43.734-2.057-3.392-13.136-2.829-14.219-2.753z" fill="#0056EC"/><path d="M179.351 232.057c-14.762.975-15.736 5.96-22.343 5.18-9.779-1.149-8.068-19.321-6.855-25.833l-5.837.011s-10.527 41.382 22.721 33.732c-1.278 7.249 6.996 19.093-1.029 33.462 12.617 3.435 24.4 4.269 34.483-.065-1.766-2.384 3.617-26.429-6.921-43.734-2.057-3.392-13.136-2.829-14.219-2.753z" fill="#0056EC"/><path d="M177.315 216.93c.964.249 2.079.433 2.599 1.246.336.531.314 1.192.281 1.81.174-.65.899-1.116 1.582-1.03.693.076 1.278.694 1.288 1.366.011.314-.097.617-.216.91-.293.737-.661 1.43-1.094 2.091 1.202.445 2.22 3.977 2.816 5.072 2.025-.51 6.541-2.254 6.931-9.439.184-3.348-.834-7.357-4.462-9.579-2.567-1.571-6.812-1.593-9.747-.845-2.383.607-6.173 2.991-4.408 5.765.888 1.398 2.838 2.221 4.43 2.633z" fill="#EF832B"/><path d="M189.964 212.357c1.375-.455 3.119-.216 3.942.932.639.9.585 2.07.791 3.143.097.52.281 1.04.682 1.397.476.423 1.169.531 1.819.564 1.592.087 3.195-.119 4.765.152 1.571.271 3.174 1.148 3.618 2.611.249.813.108 1.701.411 2.492.444 1.192 1.711 1.875 2.816 2.569 2.35 1.473 4.354 3.467 5.794 5.775.921 1.463 1.624 3.088 1.733 4.79.108 1.701 1.343 3.955 1.007 5.624-.357 1.809-2.134 4.258-5.642 5.385-6.065 1.951-7.993 2.796-13.809-.661-.704-.412-2.068-1.831-2.707-2.341-.498-.4-.812-.975-.986-1.571-.487-1.668.076-3.467.943-4.984.866-1.517 2.046-2.861 2.934-4.367.531-.91.964-1.918.921-2.958-.022-.391-.119-.791-.401-1.073-.249-.239-.595-.358-.942-.423-1.278-.249-2.686.011-3.834-.563-1.126-.553-1.743-1.918-1.397-3.089.228-.78.823-1.441.986-2.232.238-1.148-.477-2.319-1.473-2.991-.996-.671-2.22-.931-3.422-1.126-.596-.098-1.213-.196-1.69-.542-.595-.423-.866-1.171-.855-1.875.043-2.254 1.873-3.933 3.996-4.638z" fill="#EF832B"/><path d="M188.87 218.414c7.3 1.583-1.917 8.507 1.95 11.823 1.104.942 2.382.65 3.671.823 4.96.683 2.242 4.053 1.906 6.697-.054.401.606.477.693.097.422-1.82 2.09-4.052 1.235-5.992-.758-1.712-2.643-1.506-4.191-1.56-1.939-.055-4.073 0-3.347-3.847.163-.856.845-1.723 1.181-2.536.379-.932.639-1.853.433-2.871-.358-1.723-1.787-2.731-3.433-3.002-.239-.054-.347.314-.098.368zM173.827 209.464c5.632-2.861 11.242-2.286 15.996 1.907.325.282.758-.152.477-.477-4.17-4.702-11.588-5.526-16.624-1.701-.163.13-.033.369.151.271z" fill="#EF832B"/><path d="M362.983 227.138l-2.437 4.919 5.957 2.438.639-5.656-4.159-1.701z" fill="#FFB9A3"/><path d="M366.579 211.154c-13.527 5.895-7.982 20.177.249 18.498 4.007-.813 6.032-13.73 6.032-13.73l-6.281-4.768z" fill="#FFB9A3"/><path d="M371.073 209.128c-.444-.823-.866-1.712-1.603-2.297-.736-.585-1.895-.78-2.577-.141-.91.845-.379 2.427.541 3.262-.79.097-1.733-.456-2.317.097-.444.412-.293 1.149-.033 1.701.596 1.29 1.57 2.417 2.773 3.175-.683.39-1.484 1.149-1.073 1.821.12.184.304.314.423.498.26.434.011.997-.26 1.431-.422.704-.888 1.387-1.376 2.048.466-.64 1.603-.38 1.939.336.336.715.043 1.592-.487 2.178-.293.325-.661.596-1.094.693-.368.087-2.014 5.158-.737 6.155 1.582 1.224 6.953.162 7.733-1.225.78.846 1.917 1.485 3.043 1.257 1.127-.227 1.982-1.614 1.376-2.589 1.213.444 2.696.054 3.53-.943.834-.997.953-2.525.293-3.641.66-.195.801-1.094.628-1.766-.347-1.355-1.451-2.503-2.805-2.883.682.011 1.224-.682 1.256-1.365.033-.683-.325-1.333-.758-1.864-1.267-1.571-2.772-1.983-4.646-2.221-1.884-.228-2.924-2.157-3.769-3.717z" fill="#4A49CA"/><path d="M358.402 354.027s-7.917 3.804-8.978 4.985c0 0 15.573.704 16.797-.032 1.224-.737-2.491-4.963-2.491-4.963l-5.328.01zM387.849 349.725s-6.953 5.364-7.755 6.74c0 0 16.419-2.438 16.419-3.51 0-1.073-3.466-4.346-3.466-4.346l-5.198 1.116z" fill="#0C2340"/><path d="M366.048 280.592c-.292 1.614-11.133 44.417 19.884 70.087l8.978-2.059s-10.451-9.806-15.379-27.469c-4.657-16.698-.964-18.335 1.831-27.524 3.097-10.175.79-17.565.79-17.565l-16.104 4.53z" fill="#D8742A"/><path d="M351.233 280.462c-4.917 11.757-13.354 51.818 5.036 74.367l9.184-.021s-7.235-7.932-8.047-26.343c-.812-18.41 3.866-26.494 7.169-32.562 3.303-6.079 6.357-16.395 6.357-16.395l-19.699.954z" fill="#EF832B"/><path d="M344.756 207.589c-2.436 8.604-3.238 24.511 8.978 30.916l8.177-1.994s-14.75-7.737-11.588-27.285l-5.567-1.637z" fill="#0B43A4"/><path d="M322.219 203.19l6.347-.78s-.769 26.678 30.031 28.932c23.512 1.712 25.353 45.858 25.353 45.858-7.581 5.104-20.295 6.653-36.594 5.483 0 0 1.039-31.49-1.549-40.115 0-.011-25.591-8.062-23.588-39.378z" fill="#0056EC"/><path d="M314.454 198.346c-1.072 1.246 3.412 2.828 7.765 4.844l5.578-.683s.065-1.116 0-2.275c-.065-1.16-.65-1.821-1.311-.824-.66.997-3.476 1.333-4.808.423-1.343-.921-6.152-2.731-7.224-1.485zM344.756 207.589c-2.046-2.004-1.494-1.885-1.494-1.885l6.227 1.409s1.365-3.045 2.534-3.121c1.159-.087-.877 2.091-.411 2.904.466.813-1.278 2.34-1.278 2.34l-5.578-1.647z" fill="#FFB9A3"/><path d="M374.571 212.065c1.278.325 2.578.455 3.639 1.332 1.051.867 1.527 2.352.769 3.555-.357.563.487 1.007.867.509.963-1.268.703-3.002-.271-4.204-1.127-1.377-3.217-1.951-4.928-1.767-.303.033-.411.488-.076.575zM380.203 223.627c.845.498 1.549 1.3 1.191 2.351-.336.964-1.31 1.539-2.101 2.091-.379.271-.054.846.368.629 1.17-.618 2.405-1.485 2.589-2.915.162-1.246-.672-2.189-1.711-2.752-.379-.195-.704.368-.336.596zM365.983 230.085c2.87 1.788 6.931 1.495 9.303-1.019.292-.314-.108-.899-.477-.617-2.599 1.928-5.544 2.546-8.588 1.235-.27-.119-.498.238-.238.401z" fill="#4A49CA"/><path d="M380.582 213.95c1.646 1.571 0 3.717-1.061 5.06-.239.293.13.694.422.423.942-.878 1.884-1.853 2.014-3.197.098-1.018-.325-1.983-1.223-2.481-.12-.065-.26.098-.152.195z" fill="#4A49CA"/><path d="M197.382 15.9975l-2.534-6.209 24.508-9.319-21.974 15.528z" fill="#0B43A4"/><path d="M198.617 12.1616L219.356.4695l-14.436 14.672-6.303-2.9799zM189.238 7.2528L219.356.4695l-24.508 9.319-5.61-2.5357z" fill="#5193F4"/><path d="M198.617 12.1616l-1.235 3.836 3.748-2.644-2.513-1.192z" fill="#0056EC"/><path d="M194.502 15.1631c-6.401-1.0836-15.086 5.3963-11.35 12.1363 1.267 2.2973 7.83 1.3004 7.343-1.2353-.239-1.2136-1.722-1.7337-2.946-1.5929-7.148.8236-7.44 6.8159-7.115 8.3438 1.635 7.8886 13.721 5.2229 17.782 4.1068" stroke="#C8DBFB" stroke-miterlimit="10" stroke-linecap="round" stroke-linejoin="round" stroke-dasharray="4 4"/></svg>